<?xml version="1.0" standalone="no"?>
<!DOCTYPE svg PUBLIC "-//W3C//DTD SVG 20010904//EN"
 "http://www.w3.org/TR/2001/REC-SVG-20010904/DTD/svg10.dtd">
<svg version="1.0" xmlns="http://www.w3.org/2000/svg"
 width="153.000000pt" height="153.000000pt" viewBox="0 0 153.000000 153.000000"
 preserveAspectRatio="xMidYMid meet">
<metadata>
Created by potrace 1.14, written by Peter Selinger 2001-2017
</metadata>
<g transform="translate(0.000000,153.000000) scale(0.100000,-0.100000)"
fill="#000000" stroke="none">
<path d="M0 765 l0 -765 765 0 765 0 0 765 0 765 -765 0 -765 0 0 -765z m964
399 c54 -20 106 -70 106 -105 0 -38 -36 -79 -68 -79 -15 0 -43 8 -62 18 -83
44 -169 33 -232 -30 -21 -21 -38 -42 -38 -48 0 -5 44 -11 98 -12 l97 -3 0 -30
0 -30 -107 -3 -108 -3 0 -29 0 -30 69 0 c72 0 96 -12 89 -47 -3 -15 -15 -19
-71 -21 -79 -3 -83 -13 -35 -68 62 -70 140 -82 240 -37 56 25 62 26 87 12 17
-9 29 -28 35 -52 12 -48 -11 -82 -80 -117 -42 -21 -63 -25 -144 -25 -81 0
-103 4 -150 26 -71 34 -136 99 -171 174 -16 33 -29 65 -29 72 0 6 -10 13 -22
15 -32 4 -38 53 -9 63 29 9 29 61 0 68 -30 8 -23 59 10 67 17 4 28 19 42 57
64 171 271 261 453 197z"/>
</g>
</svg>
